<svg xmlns="http://www.w3.org/2000/svg" xmlns:xlink="http://www.w3.org/1999/xlink" width="254" height="158.5" viewBox="0 0 254 158.5" fill="none">
<path     fill="#A8A7C4" fill-opacity="0.06" d="M7.38966 2L246.61 2C249.587 2 252 4.41303 252 7.38966L252 151.11C252 154.087 249.587 156.5 246.61 156.5L7.38965 156.5C4.41302 156.5 1.99999 154.087 1.99999 151.11L2 7.38966C2 4.41303 4.41303 2 7.38966 2Z">
</path>
<path   fill="rgba(110, 124, 255, 1)"  d="M7.38966 3.57628e-07L246.61 3.57628e-07C250.692 3.57628e-07 254 3.30846 254 7.38966L254 151.11C254 155.192 250.692 158.5 246.61 158.5L7.38965 158.5C3.30846 158.5 -8.82149e-06 155.192 -8.58307e-06 151.11L-2.38419e-07 7.38966C0 3.30846 3.30846 3.57628e-07 7.38966 3.57628e-07ZM7.38966 4C5.5176 4 4 5.5176 4 7.38966L3.99999 151.11C3.99999 152.982 5.5176 154.5 7.38965 154.5L246.61 154.5C248.482 154.5 250 152.982 250 151.11L250 7.38966C250 5.5176 248.482 4 246.61 4L7.38966 4Z">
</path>
<g >
<path     fill="#FFFFFF"  d="M84.096 91.96L78.264 91.96L82.008 56.104L89.928 56.104Q91.944 52.36 93.384 48.616L81.864 48.616L82.512 42.712L109.44 42.712L108.792 48.616L99.936 48.616Q99.288 50.488 98.496 52.324Q97.704 54.16 96.696 56.104L101.88 56.104Q104.544 56.104 105.804 57.544Q107.064 58.984 106.848 61.504L103.464 91.96L97.632 91.96L100.872 62.08L87.264 62.08L84.096 91.96ZM58.464 101.248L56.52 95.416Q58.392 94.768 60.3 94.084Q62.208 93.4 64.08 92.608L68.112 53.296L61.488 53.296L62.136 47.536L80.352 47.536L79.776 53.296L74.448 53.296L70.632 89.656Q72.936 88.576 75.024 87.352L77.256 92.824Q72.72 95.344 68.04 97.468Q63.36 99.592 58.464 101.248ZM73.44 110.104L70.776 103.768Q76.752 101.32 80.532 98.62Q84.312 95.92 86.328 92.248Q88.344 88.576 88.92 83.104L90.864 65.32L96.552 65.32L94.68 82.24Q94.176 87.064 93.096 90.664Q96.48 93.688 99.828 97.324Q103.176 100.96 106.2 105.136L101.304 109.528Q98.856 105.784 96.192 102.544Q93.528 99.304 90.792 96.424Q88.416 100.816 84.24 104.056Q80.064 107.296 73.44 110.104ZM179.656 49.48L173.464 107.656L136.096 107.656L142.864 43L173.68 43Q177.064 43 178.504 44.908Q179.944 46.816 179.656 49.48ZM147.472 62.584L171.664 62.584L173.032 49.48L148.84 49.48L147.472 62.584ZM145.456 81.808L169.576 81.808L171.016 68.776L146.824 68.776L145.456 81.808ZM143.44 101.176L167.488 101.176L168.928 88L144.808 88L143.44 101.176Z">
</path>
</g>
</svg>
