<svg xmlns="http://www.w3.org/2000/svg" xmlns:xlink="http://www.w3.org/1999/xlink" width="254" height="158.5" viewBox="0 0 254 158.5" fill="none">
<path     fill="#A8A7C4" fill-opacity="0.06" d="M7.38966 2L246.61 2C249.587 2 252 4.41303 252 7.38966L252 151.11C252 154.087 249.587 156.5 246.61 156.5L7.38965 156.5C4.41302 156.5 1.99999 154.087 1.99999 151.11L2 7.38966C2 4.41303 4.41303 2 7.38966 2Z">
</path>
<path   fill="rgba(110, 124, 255, 1)"  d="M7.38966 3.57628e-07L246.61 3.57628e-07C250.692 3.57628e-07 254 3.30846 254 7.38966L254 151.11C254 155.192 250.692 158.5 246.61 158.5L7.38965 158.5C3.30846 158.5 -8.82149e-06 155.192 -8.58307e-06 151.11L-2.38419e-07 7.38966C0 3.30846 3.30846 3.57628e-07 7.38966 3.57628e-07ZM7.38966 4C5.5176 4 4 5.5176 4 7.38966L3.99999 151.11C3.99999 152.982 5.5176 154.5 7.38965 154.5L246.61 154.5C248.482 154.5 250 152.982 250 151.11L250 7.38966C250 5.5176 248.482 4 246.61 4L7.38966 4Z">
</path>
<g >
<path     fill="#FFFFFF"  d="M108.656 51.048L107.936 57.6L101.024 57.6Q98.36 65.952 95.048 73.116Q91.736 80.28 87.488 86.4Q90.944 91.512 95.408 96.264Q99.872 101.016 105.344 105.624L101.168 111.384Q95.624 106.848 91.124 102.06Q86.624 97.272 83.096 92.16Q73.52 103.68 59.264 111.6L55.736 105.336Q69.992 97.416 79.208 86.112Q75.32 79.416 72.764 72.288Q70.208 65.16 68.696 57.6L62.144 57.6L62.864 51.048L82.448 51.048L83.384 41.904L90.008 41.904L89.072 51.048L108.656 51.048ZM75.608 57.6Q78.2 69.984 83.6 79.992Q90.008 70.272 93.752 57.6L75.608 57.6ZM133.008 97.272L128.4 94.968Q131.928 87.048 134.7 78.876Q137.472 70.704 139.272 62.28L135.24 62.28L135.888 56.448L142.152 56.448L143.736 41.904L149.64 41.904L148.056 56.448L152.232 56.448L151.584 62.28L147.48 62.28L146.616 70.56Q149.28 73.368 152.088 76.608L148.92 81.576Q147.336 79.416 145.896 77.616L142.224 111.6L136.392 111.6L140.496 74.376Q139.056 80.064 137.22 85.752Q135.384 91.44 133.008 97.272ZM151.872 67.968L163.104 67.968L165.84 42.048L171.96 42.048L169.296 67.968L174.624 67.968Q177.36 67.968 178.908 69.408Q180.456 70.848 180.096 73.728L176.352 109.224L146.4 109.224L147.048 103.176L170.808 103.176L172.104 91.224L150.288 91.224L150.936 85.32L172.68 85.32L173.904 74.016L151.224 74.016L151.872 67.968ZM177.576 64.656L172.536 62.28Q174.48 58.464 176.064 54.108Q177.648 49.752 178.8 45.36L184.056 46.872Q183.048 51.264 181.356 55.908Q179.664 60.552 177.576 64.656ZM153.456 46.224L159 45.432Q159.288 49.896 159.828 54.36Q160.368 58.824 161.016 62.64L155.4 64.008Q154.752 60.192 154.248 55.476Q153.744 50.76 153.456 46.224Z">
</path>
</g>
</svg>
