<svg xmlns="http://www.w3.org/2000/svg" xmlns:xlink="http://www.w3.org/1999/xlink" width="75.2294921875" height="78.7998046875" viewBox="0 0 75.2294921875 78.7998046875" fill="none">
	<path d="M67.4272 0.399902L0.867188 78.3999L8.36719 78.3999L74.3672 0.399902L67.4272 0.399902Z" stroke="rgb(255, 255, 255)" stroke-width="0.8" fill="#ffffff" fill-opacity="100">
	</path>
	<path d="M64.0671 68.0298L21.3671 68.0298L24.8671 63.8198L59.5671 63.8198L59.5671 33.8998L64.0671 32.3998L64.0671 68.0298Z" stroke="rgba(255,255,255,1)" stroke-width="2" fill="#ffffff" fill-opacity="100">
	</path>
	<path d="M57.3623 27.9216C57.3623 25.4248 59.3855 23.4017 61.8708 23.4017C64.3562 23.4017 66.3674 25.4248 66.3674 27.9216C66.3674 30.4183 64.3562 32.4414 61.8708 32.4414C59.3855 32.4414 57.3623 30.4183 57.3623 27.9216Z" stroke="rgba(255,255,255,1)" stroke-width="4.2">
	</path>
	<path d="M8.86768 12.4004L52.5677 12.4004L50.6477 14.6704L48.8977 16.6104L13.3677 16.6104L13.3677 46.5304L8.86768 48.0304L8.86768 12.4004Z" stroke="rgba(255,255,255,1)" stroke-width="2" fill="#ffffff" fill-opacity="100">
	</path>
	<path d="M16.3726 53.013C16.3726 55.5097 14.3494 57.5328 11.864 57.5328C9.37869 57.5328 7.36743 55.5097 7.36743 53.013C7.36743 50.5163 9.37869 48.4932 11.864 48.4932C14.3494 48.4932 16.3726 50.5163 16.3726 53.013Z" stroke="rgba(255,255,255,1)" stroke-width="4.2">
	</path>
</svg>
