<svg xmlns="http://www.w3.org/2000/svg" xmlns:xlink="http://www.w3.org/1999/xlink" width="256.642333984375" height="283" viewBox="0 0 256.642333984375 283" fill="none">
<path d="M239.578 0.5L1.07764 282.5L21.5776 282.5L255.578 0.5L239.578 0.5Z" stroke="rgba(255, 255, 255, 1)" stroke-width="1"      fill="#FFFFFF" >
</path>
<path d="M22.0776 37.5L196.078 37.5L185.486 49.9476L35.1907 49.9476L35.1907 206.5L22.0776 206.5L22.0776 37.5Z" stroke="rgba(255, 255, 255, 1)" stroke-width="1"      fill="#FFFFFF" >
</path>
<path d="M18.0776 217.5C18.0776 211.425 23.0025 206.5 29.0776 206.5C35.1528 206.5 40.0776 211.425 40.0776 217.5C40.0776 223.575 35.1528 228.5 29.0776 228.5C23.0025 228.5 18.0776 223.575 18.0776 217.5Z" stroke="rgba(255, 255, 255, 1)" stroke-width="6.18"   >
</path>
<path d="M233.078 250.5L59.0776 250.5L69.6689 238.052L219.965 238.052L219.965 81.5L233.078 81.5L233.078 250.5Z" stroke="rgba(255, 255, 255, 1)" stroke-width="1"      fill="#FFFFFF" >
</path>
<path d="M237.078 70.5C237.078 76.5751 232.153 81.5 226.078 81.5C220.003 81.5 215.078 76.5751 215.078 70.5C215.078 64.4249 220.003 59.5 226.078 59.5C232.153 59.5 237.078 64.4249 237.078 70.5Z" stroke="rgba(255, 255, 255, 1)" stroke-width="6.18"   >
</path>
</svg>
