<svg xmlns="http://www.w3.org/2000/svg" xmlns:xlink="http://www.w3.org/1999/xlink" width="310.5328674316406" height="284.727294921875" viewBox="0 0 310.5328674316406 284.727294921875" fill="none">
<path   fill="url(#linear_border_6_1_0)"  d="M10.6378 3.22339L82.877 141.605L82.8426 147.223L10.6034 281.569L0.0344009 275.886L72.2737 141.54L77.5581 144.382L72.2393 147.158L9.53674e-07 8.77661L10.6378 3.22339ZM310.533 8.96886L231.852 147.151L226.638 144.182L231.894 141.288L305.974 275.833L295.462 281.621L221.382 147.076L221.424 141.213L300.105 3.03114L310.533 8.96886ZM58.3904 0L119.079 0L119.079 6L119.079 0L119.079 6L119.079 0Q120.006 0 120.891 0.275612Q121.757 0.545127 122.507 1.05488Q123.256 1.5646 123.825 2.27038Q124.407 2.99204 124.748 3.85404L124.748 3.85415L161.943 97.9264L156.363 100.133L161.942 97.9258C159.981 92.9668 152.971 92.9428 150.976 97.8881L150.976 97.8881L188.933 3.81463L188.933 3.81386L188.933 3.81386Q189.278 2.95976 189.86 2.24566Q190.429 1.54708 191.176 1.04302Q191.923 0.538848 192.784 0.272427Q193.664 4.76837e-07 194.586 0L194.586 0L255.273 0L255.273 6L255.273 0C259.88 0 262.823 4.91538 260.645 8.9757L260.644 8.97683L186.508 147.172L181.221 144.336L186.508 147.172L181.221 144.336L186.508 147.172Q187.219 145.847 187.209 144.344Q187.2 142.84 186.472 141.523L186.473 141.525L260.606 275.684L260.606 275.685C262.85 279.747 259.912 284.727 255.271 284.727L255.271 278.727L255.271 284.727L194.584 284.727L194.584 278.727L194.584 284.727L194.584 278.727L194.584 284.727Q193.681 284.727 192.817 284.465Q191.971 284.209 191.232 283.723Q190.494 283.237 189.924 282.561Q189.342 281.87 188.985 281.041L188.985 281.04L151.028 192.795L151.027 192.794C153.084 197.576 159.872 197.551 161.893 192.754L161.893 192.755L124.698 280.999L124.697 281L124.697 281Q124.344 281.837 123.762 282.536Q123.192 283.219 122.451 283.711Q121.71 284.202 120.859 284.462Q119.99 284.727 119.081 284.727L119.081 278.727L119.081 284.727L58.3926 284.727L58.3926 278.727L58.3926 284.727C53.7808 284.727 50.8393 279.804 53.0255 275.743L53.0257 275.742L125.257 141.582L130.54 144.426L125.257 141.582L130.54 144.426L125.257 141.582Q124.561 142.876 124.552 144.345Q124.543 145.815 125.224 147.117L125.223 147.116L52.9885 8.91892L52.9884 8.91881C50.8673 4.86054 53.8113 0 58.3904 0L58.3904 6L58.3904 0ZM58.3904 12L58.3904 12C62.8263 12 65.6782 7.29154 63.6234 3.36026L58.3059 6.13953L63.6233 3.36015L135.858 141.558L130.541 144.337L135.858 141.557Q136.561 142.901 136.552 144.419Q136.542 145.935 135.823 147.27L135.823 147.27L135.823 147.271L63.5916 281.431L58.3087 278.587L63.5919 281.431C65.7096 277.497 62.8602 272.727 58.3926 272.727L58.3926 272.727L119.081 272.727L119.081 272.727Q118.2 272.727 117.358 272.984Q116.534 273.236 115.816 273.712Q115.098 274.189 114.546 274.85Q113.982 275.527 113.64 276.338L119.169 278.669L113.64 276.338L119.169 278.669L113.64 276.339L150.835 188.094L156.364 190.425L150.834 188.095C152.921 183.143 159.928 183.117 162.051 188.054L156.539 190.424L162.051 188.053L200.008 276.299L194.497 278.67L200.008 276.298Q199.662 275.495 199.099 274.826Q198.547 274.171 197.831 273.7Q197.116 273.229 196.296 272.981Q195.459 272.727 194.584 272.727L194.584 272.727L194.584 272.727L255.271 272.727L255.271 272.727C250.775 272.727 247.929 277.552 250.102 281.487L255.354 278.586L250.103 281.488L175.97 147.329L181.221 144.427L175.971 147.331Q175.219 145.972 175.21 144.42Q175.2 142.868 175.933 141.5L175.933 141.5L175.933 141.5L250.07 3.30405L255.357 6.14044L250.069 3.30517C247.96 7.23842 250.81 12 255.273 12L255.273 12L194.586 12L194.586 6L194.586 12Q195.478 12 196.331 11.7361Q197.165 11.478 197.889 10.9896Q198.612 10.5013 199.164 9.82461Q199.727 9.13286 200.061 8.30549L194.497 6.05968L200.061 8.30549L194.497 6.05968L200.061 8.30472L162.104 102.378L156.54 100.133L162.104 102.378C160.045 107.483 152.808 107.458 150.784 102.339L150.783 102.339L113.588 8.26644L119.168 6.0603L113.588 8.26655Q113.918 9.10153 114.482 9.80067Q115.033 10.4844 115.759 10.9781Q116.485 11.4719 117.324 11.733Q118.181 12 119.079 12L119.079 12L119.079 12L58.3904 12ZM82.8426 147.223L77.5581 144.382L82.877 141.605L84.3482 144.423L82.8426 147.223ZM221.424 141.213L226.638 144.182L221.382 147.076L219.761 144.133L221.424 141.213Z">
</path>
<defs>
<linearGradient id="linear_border_6_1_0" x1="-33.04212188720703" y1="6" x2="326.32489013671875" y2="278.727294921875" gradientUnits="userSpaceOnUse">
<stop offset="0" stop-color="#BED3E6"  />
<stop offset="1" stop-color="#D5C3E6"  />
</linearGradient>
</defs>
</svg>
