<svg xmlns="http://www.w3.org/2000/svg" xmlns:xlink="http://www.w3.org/1999/xlink" width="435" height="435" viewBox="0 0 435 435" fill="none">
<circle cx="217.5" cy="217.5" r="217.5"   fill="#2E2E2E" >
</circle>
<path   fill="url(#linear_border_6_1_0)"  d="M72.3189 78.2234L144.558 216.605L144.524 222.223L72.2845 356.569L61.7155 350.886L133.955 216.54L139.239 219.382L133.92 222.158L61.6811 83.7766L72.3189 78.2234ZM372.214 83.9689L293.533 222.151L288.319 219.182L293.575 216.288L367.655 350.833L357.143 356.621L283.063 222.076L283.105 216.213L361.786 78.0311L372.214 83.9689ZM120.072 75L180.76 75L180.76 81L180.76 75L180.76 81L180.76 75Q181.687 75 182.573 75.2756Q183.438 75.5451 184.188 76.0549Q184.937 76.5646 185.506 77.2704Q186.088 77.992 186.429 78.854L186.429 78.8541L223.624 172.926L218.044 175.133L223.624 172.926C221.662 167.967 214.652 167.943 212.657 172.888L212.657 172.888L250.614 78.8146L250.615 78.8139L250.615 78.8139Q250.959 77.9598 251.541 77.2457Q252.11 76.5471 252.857 76.043Q253.604 75.5388 254.465 75.2724Q255.345 75 256.267 75L256.267 75L316.954 75L316.954 81L316.954 75C321.562 75 324.504 79.9154 322.326 83.9757L322.325 83.9768L248.189 222.172L242.902 219.336L248.189 222.172L242.902 219.336L248.189 222.172Q248.9 220.847 248.89 219.344Q248.881 217.84 248.153 216.523L248.154 216.525L322.287 350.684L322.287 350.685C324.531 354.747 321.593 359.727 316.952 359.727L316.952 353.727L316.952 359.727L256.265 359.727L256.265 353.727L256.265 359.727L256.265 353.727L256.265 359.727Q255.362 359.727 254.498 359.465Q253.652 359.209 252.913 358.723Q252.175 358.237 251.605 357.561Q251.023 356.87 250.666 356.041L250.666 356.04L212.709 267.795L212.708 267.794C214.765 272.576 221.553 272.551 223.574 267.754L223.574 267.755L186.379 355.999L186.378 356L186.378 356Q186.025 356.837 185.443 357.536Q184.874 358.219 184.132 358.711Q183.391 359.202 182.54 359.462Q181.671 359.727 180.762 359.727L180.762 353.727L180.762 359.727L120.074 359.727L120.074 353.727L120.074 359.727C115.462 359.727 112.52 354.804 114.707 350.743L114.707 350.742L186.938 216.582L192.221 219.426L186.938 216.582L192.221 219.426L186.938 216.582Q186.242 217.876 186.233 219.345Q186.224 220.815 186.905 222.117L186.905 222.116L114.67 83.9189L114.67 83.9188C112.548 79.8605 115.492 75 120.072 75L120.072 81L120.072 75ZM120.072 87L120.072 87C124.507 87 127.359 82.2915 125.305 78.3603L119.987 81.1395L125.304 78.3601L197.539 216.558L192.222 219.337L197.539 216.557Q198.242 217.901 198.233 219.419Q198.223 220.935 197.505 222.27L197.505 222.27L197.504 222.271L125.273 356.431L119.99 353.587L125.273 356.431C127.391 352.497 124.541 347.727 120.074 347.727L120.074 347.727L180.762 347.727L180.762 347.727Q179.881 347.727 179.039 347.984Q178.215 348.236 177.497 348.712Q176.779 349.189 176.227 349.85Q175.663 350.527 175.321 351.338L180.85 353.669L175.321 351.338L180.85 353.669L175.321 351.339L212.516 263.094L218.045 265.425L212.516 263.095C214.602 258.143 221.61 258.117 223.732 263.054L218.22 265.424L223.732 263.053L261.689 351.299L256.178 353.67L261.689 351.298Q261.343 350.495 260.78 349.826Q260.228 349.171 259.512 348.7Q258.797 348.229 257.977 347.981Q257.14 347.727 256.265 347.727L256.265 347.727L256.265 347.727L316.952 347.727L316.952 347.727C312.456 347.727 309.61 352.552 311.783 356.487L317.035 353.586L311.784 356.488L237.651 222.329L242.902 219.427L237.652 222.331Q236.9 220.972 236.891 219.42Q236.881 217.868 237.614 216.5L237.614 216.5L237.615 216.5L311.751 78.304L317.038 81.1404L311.75 78.3052C309.641 82.2384 312.491 87 316.954 87L316.954 87L256.267 87L256.267 81L256.267 87Q257.16 87 258.012 86.7361Q258.846 86.478 259.57 85.9896Q260.293 85.5013 260.845 84.8246Q261.408 84.1329 261.742 83.3055L256.178 81.0597L261.742 83.3055L256.178 81.0597L261.743 83.3047L223.785 177.378L218.221 175.133L223.785 177.378C221.726 182.483 214.489 182.458 212.465 177.339L212.464 177.339L175.269 83.2664L180.849 81.0603L175.269 83.2665Q175.6 84.1015 176.163 84.8007Q176.714 85.4844 177.44 85.9781Q178.166 86.4719 179.005 86.733Q179.862 87 180.76 87L180.76 87L180.76 87L120.072 87ZM144.524 222.223L139.239 219.382L144.558 216.605L146.029 219.423L144.524 222.223ZM283.105 216.213L288.319 219.182L283.063 222.076L281.443 219.133L283.105 216.213Z">
</path>
<defs>
<linearGradient id="linear_border_6_1_0" x1="28.639007568359375" y1="81" x2="388.0059814453125" y2="353.727294921875" gradientUnits="userSpaceOnUse">
<stop offset="0" stop-color="#BED3E6"  />
<stop offset="1" stop-color="#D5C3E6"  />
</linearGradient>
</defs>
</svg>
