<svg xmlns="http://www.w3.org/2000/svg" xmlns:xlink="http://www.w3.org/1999/xlink" width="54.6719970703125" height="31.29595947265625" viewBox="0 0 54.6719970703125 31.29595947265625" fill="none">
<g >
<path     fill="url(#linear_fill_1_25_0)"  d="M20.128 27.488L19.84 30.272L-1.71661e-05 30.272L0.287983 27.488L8.83198 27.488L9.79198 18.368L3.10398 18.368L3.39198 15.584L10.08 15.584L10.912 7.51998L3.26398 7.51998L3.55198 4.73598L11.2 4.73598Q10.976 3.77598 10.672 2.83198Q10.368 1.88798 9.98398 0.959978L12.8 -2.28882e-05Q13.248 0.991976 13.616 2.11198Q13.984 3.23198 14.208 4.25598L12.64 4.73598L21.76 4.73598L21.472 7.51998L13.824 7.51998L12.992 15.584L19.648 15.584L19.36 18.368L12.704 18.368L11.744 27.488L20.128 27.488ZM37.552 23.008L34.576 23.008L36.24 7.19998L41.264 7.19998Q42.128 5.53598 42.736 3.90398L34.064 3.90398L34.384 1.02398L54.672 1.02398L54.352 3.90398L45.616 3.90398Q45.328 4.73598 44.992 5.55198Q44.656 6.36798 44.24 7.19998L48.624 7.19998Q50.096 7.19998 50.736 7.95198Q51.376 8.70398 51.248 9.91998L49.84 23.008L46.864 23.008L48.24 10.016L38.896 10.016L37.552 23.008ZM32.496 31.296L31.312 28.48Q35.76 26.848 38.336 24.416Q40.912 21.984 41.36 18.048L42.096 11.712L45.008 11.712L44.304 18.144Q44.048 20.416 43.312 22.272Q45.552 23.552 48.064 25.168Q50.576 26.784 52.72 28.512L50.896 31.168Q48.656 29.28 46.4 27.712Q44.144 26.144 41.936 24.832Q40.528 26.816 38.224 28.432Q35.92 30.048 32.496 31.296Z">
</path>
</g>
<defs>
<linearGradient id="linear_fill_1_25_0" x1="-18.80963134765625" y1="-2.6240234375" x2="98.9644775390625" y2="36.3759765625" gradientUnits="userSpaceOnUse">
<stop offset="0" stop-color="#69CAFF"  />
<stop offset="1" stop-color="#D16EFF"  />
</linearGradient>
</defs>
</svg>
