<svg xmlns="http://www.w3.org/2000/svg" xmlns:xlink="http://www.w3.org/1999/xlink" width="113.07733917236328" height="31.2640380859375" viewBox="0 0 113.07733917236328 31.2640380859375" fill="none">
<g >
<path     fill="url(#linear_fill_1_36_0)"  d="M2.46401 31.04L5.24521e-06 29.408Q1.53601 26.816 2.48001 24.032Q3.42401 21.248 4.01601 17.936Q4.60801 14.624 5.08801 10.496L5.44001 7.58401L3.26401 7.58401L3.55201 4.83201L5.76001 4.83201L6.30401 0.0320129L9.02401 0.0320129L8.48001 4.83201L11.072 4.83201Q12.192 4.83201 12.768 5.58401Q13.344 6.33601 13.216 7.55201L11.168 26.88Q10.944 28.96 10.112 30.016Q9.28001 31.072 7.68001 31.072Q6.33601 31.072 5.45601 30.032Q4.57601 28.992 4.35201 27.072Q3.96801 28.128 3.48801 29.12Q3.00801 30.112 2.46401 31.04ZM21.312 30.368L12.64 30.368L15.36 4.60802L15.36 4.60802L15.52 3.16801L21.472 3.16801Q22.976 3.16801 23.536 3.92001Q24.096 4.67201 23.968 5.85601L21.632 27.552L21.664 27.552L21.312 30.368ZM15.744 27.552L18.848 27.552L21.12 5.98401L18.016 5.98401L15.744 27.552ZM6.59201 25.792Q6.72001 26.88 6.99201 27.568Q7.26401 28.256 7.616 28.256Q7.87201 28.256 8.09601 27.856Q8.32001 27.456 8.44801 26.24L10.464 7.58401L8.16001 7.58401L7.80801 10.528Q7.29601 14.944 6.57601 18.944Q5.85601 22.944 4.64001 26.336L6.59201 25.792ZM52.704 28.992L50.176 31.104Q48.16 28.224 46.736 25.6Q45.312 22.976 44.416 20.288Q43.52 17.6 42.976 14.528Q42.08 17.664 40.704 20.4Q39.328 23.136 37.168 25.744Q35.008 28.352 31.712 31.136L29.76 28.672Q32.896 26.08 34.976 23.584Q37.056 21.088 38.416 18.528Q39.776 15.968 40.656 13.2Q41.536 10.432 42.24 7.29601Q42.144 5.82401 42.112 4.19201L37.984 3.90401L38.304 1.08801L43.04 1.40801Q44.672 1.50401 44.768 3.52002Q44.928 7.23201 45.264 10.208Q45.6 13.184 46.176 15.664Q46.752 18.144 47.616 20.32Q48.48 22.496 49.744 24.608Q51.008 26.72 52.704 28.992ZM59.968 25.984L62.4 25.6Q62.464 27.072 62.832 27.68Q63.2 28.288 63.776 28.32Q64.32 28.352 64.752 27.808Q65.184 27.264 65.344 25.696L65.888 20.672Q63.584 21.536 61.184 22.112L60.576 19.52Q63.52 18.848 66.176 17.728L66.784 12.032L62.112 12.032L62.4 9.15201L67.104 9.15201L67.52 5.12001Q65.728 5.66401 63.872 6.01601L63.136 3.48801Q65.28 3.04001 67.44 2.33601Q69.6 1.63202 71.488 0.640015L72.768 3.00801Q71.552 3.61601 70.24 4.16002L69.696 9.15201L73.664 9.15201Q73.824 6.65601 74.048 4.32001Q74.272 1.98401 74.528 0.0640144L77.056 0.0640144Q76.8 2.04802 76.592 4.36802Q76.384 6.68801 76.224 9.15201L82.976 9.15201L82.688 12.032L76.064 12.032Q76 13.952 75.984 15.856Q75.968 17.76 76 19.52Q77.12 18.208 77.952 16.752Q78.784 15.296 79.456 13.728L81.856 14.72Q80.864 16.992 79.504 19.072Q78.144 21.152 76.192 23.04Q76.576 28.224 77.76 28.224Q78.368 28.224 78.832 26.64Q79.296 25.056 79.648 22.56L82.016 22.88Q81.824 24.48 81.52 25.984Q81.216 27.488 80.72 28.672Q80.224 29.856 79.488 30.56Q78.752 31.264 77.696 31.264Q75.84 31.264 74.96 29.552Q74.08 27.84 73.76 25.056Q72.224 26.176 70.432 27.136L69.472 24.64Q70.624 24.032 71.632 23.376Q72.64 22.72 73.504 22.016Q73.472 21.792 73.472 21.536Q73.376 19.36 73.392 16.928Q73.408 14.496 73.504 12.032L69.408 12.032L68.928 16.448Q69.952 15.936 70.944 15.328L72.128 17.664Q70.432 18.688 68.608 19.52L67.936 26.016Q67.744 28 67.104 29.104Q66.464 30.208 65.584 30.64Q64.704 31.072 63.712 31.04Q61.952 30.976 61.024 29.6Q60.096 28.224 59.968 25.984ZM80.768 7.80801Q79.296 4.70401 77.6 2.36802L79.712 0.992016Q80.544 2.08002 81.408 3.55202Q82.272 5.02402 83.04 6.62401L80.768 7.80801ZM95.072 31.04L92.256 31.04L94.24 12.992Q93.216 14.784 92.064 16.544L89.92 14.752Q92.288 11.488 94.096 7.63202Q95.904 3.77601 97.216 1.33514e-05L99.744 1.08801Q98.848 3.71201 97.6 6.46402L95.072 31.04ZM104.928 5.34402L102.464 6.33601Q102.144 4.86401 101.6 3.44001Q101.056 2.01601 100.576 1.12001L102.976 0.160015Q103.552 1.21601 104.048 2.56001Q104.544 3.90401 104.928 5.34402ZM105.28 25.024Q105.376 26.88 105.776 27.68Q106.176 28.48 106.752 28.48Q107.2 28.48 107.568 27.92Q107.936 27.36 108.096 25.696L110.336 4.25602L105.92 4.25602L106.24 1.66401L110.688 1.66401Q111.904 1.66401 112.544 2.25602Q113.184 2.84801 113.056 4.03201L110.752 25.952Q110.528 28.064 109.952 29.184Q109.376 30.304 108.56 30.736Q107.744 31.168 106.784 31.168Q105.216 31.168 104.128 29.888Q103.04 28.608 102.88 25.408L105.28 25.024ZM97.184 31.04L99.68 7.58401L102.4 7.58401L99.936 31.04L97.184 31.04Z">
</path>
</g>
<defs>
<linearGradient id="linear_fill_1_36_0" x1="-0.7039947509765625" y1="-2.8599853515625" x2="115.29600524902344" y2="36.1400146484375" gradientUnits="userSpaceOnUse">
<stop offset="0" stop-color="#87B3FF"  />
<stop offset="1" stop-color="#D39DEB"  />
</linearGradient>
</defs>
</svg>
