<svg xmlns="http://www.w3.org/2000/svg" xmlns:xlink="http://www.w3.org/1999/xlink" width="53.90399169921875" height="31.61602783203125" viewBox="0 0 53.90399169921875 31.61602783203125" fill="none">
<g >
<path     fill="url(#linear_fill_1_23_0)"  d="M9.92 7.808L7.488 8.416Q7.264 6.72 6.816 5.056L5.664 5.056Q4.48 7.136 2.816 9.024L0.575995 7.52Q2.112 5.792 3.232 4.016Q4.35199 2.24 5.056 1.90735e-06L7.616 0.704002Q7.328 1.632 6.944 2.528L12.064 2.528L11.776 5.056L9.408 5.056Q9.568 5.728 9.696 6.416Q9.824 7.104 9.92 7.808ZM19.712 7.936L17.248 8.576Q17.12 7.712 16.912 6.832Q16.704 5.952 16.448 5.056L15.392 5.056Q14.496 6.752 13.344 8.32L11.136 7.008Q12.288 5.44 13.104 3.76Q13.92 2.08 14.56 0.0320015L17.152 0.800003Q16.864 1.696 16.512 2.528L22.592 2.528L22.336 5.056L19.008 5.056Q19.232 5.76 19.408 6.496Q19.584 7.232 19.712 7.936ZM7.64799 12.224L5.632 13.632Q5.088 12.64 4.4 11.664Q3.712 10.688 2.944 9.824L4.96 8.416Q5.696 9.28 6.4 10.24Q7.104 11.2 7.64799 12.224ZM12.224 26.752Q12.48 27.552 12.944 27.952Q13.408 28.352 13.984 28.352Q14.464 28.352 14.928 28.096Q15.392 27.84 15.744 27.104Q16.096 26.368 16.224 24.992L17.632 12.064L8.448 12.064L8.736 9.408L17.92 9.408Q19.136 9.408 19.808 10.048Q20.48 10.688 20.32 12.128L18.848 25.952Q18.624 28.064 17.808 29.184Q16.992 30.304 15.952 30.736Q14.912 31.168 14.016 31.168Q12.48 31.168 11.296 30.128Q10.112 29.088 9.75999 27.168L12.224 26.752ZM-4.76837e-06 31.04L1.856 13.536L4.576 13.536L2.752 31.04L-4.76837e-06 31.04ZM15.2 16.416L14.24 25.344L5.408 25.344L6.56 14.272L13.184 14.272Q14.304 14.272 14.8 14.88Q15.296 15.488 15.2 16.416ZM8.576 18.56L12.512 18.56L12.736 16.64L8.768 16.64L8.576 18.56ZM8.096 22.944L12.032 22.944L12.288 20.768L8.31999 20.768L8.096 22.944ZM32.4 13.6L30.992 11.04Q34.992 9.088 37.888 6.32Q40.784 3.552 42.832 1.90735e-06L45.456 1.376Q45.008 2.176 44.496 2.976Q46.064 5.504 48.608 7.632Q51.152 9.76 53.904 11.008L52.528 13.76Q49.648 12.416 47.12 10.208Q44.592 8 42.832 5.28Q38.64 10.592 32.4 13.6ZM42.832 31.2L44.816 12.352L47.76 12.352L45.776 31.2L42.832 31.2ZM31.248 31.616L29.424 29.312Q31.536 27.552 33.008 25.696Q34.48 23.84 35.36 21.456Q36.24 19.072 36.528 15.808L36.848 12.352L39.824 12.352L39.504 15.904Q39.216 19.104 38.4 21.84Q37.584 24.576 35.888 26.976Q34.192 29.376 31.248 31.616Z">
</path>
</g>
<defs>
<linearGradient id="linear_fill_1_23_0" x1="-2.8800048828125" y1="-2.55999755859375" x2="61.1199951171875" y2="36.44000244140625" gradientUnits="userSpaceOnUse">
<stop offset="0" stop-color="#87B3FF"  />
<stop offset="1" stop-color="#D39DEB"  />
</linearGradient>
</defs>
</svg>
