<svg xmlns="http://www.w3.org/2000/svg" xmlns:xlink="http://www.w3.org/1999/xlink" width="111.96800804138184" height="31.42401123046875" viewBox="0 0 111.96800804138184 31.42401123046875" fill="none">
<g >
<path     fill="url(#linear_fill_1_37_0)"  d="M10.624 31.296L8.608 29.44Q10.784 27.264 12.24 24.272Q13.696 21.28 14.528 17.184L10.144 17.184L10.432 14.464L15.008 14.464Q15.2 13.024 15.36 11.424L15.584 9.024L11.296 9.024L11.584 6.304L17.504 6.304Q18.304 4.768 18.944 3.2Q19.584 1.632 20.096 1.90735e-06L22.496 0.672001Q22.08 2.016 21.488 3.472Q20.896 4.928 20.16 6.304L22.656 6.304L22.368 9.024L18.208 9.024L17.952 11.52Q17.888 12.288 17.792 13.024Q17.696 13.76 17.6 14.464L22.496 14.464L22.208 17.184L17.568 17.184Q17.6 19.424 18.08 21.616Q18.56 23.808 19.472 25.712Q20.384 27.616 21.728 29.024L19.904 31.072Q18.208 29.408 17.2 26.96Q16.192 24.512 15.776 21.728Q14.944 24.64 13.696 27.024Q12.448 29.408 10.624 31.296ZM14.368 5.76Q14.016 4.48 13.744 3.12Q13.472 1.76 13.376 0.480003L15.68 0.064003Q15.808 1.248 16.096 2.608Q16.384 3.968 16.704 5.184L14.368 5.76ZM0.288 26.848L-2.38419e-07 24.096Q0.736 23.904 1.408 23.712L3.52 3.936L2.304 3.936L2.592 1.088L11.744 1.088L11.424 3.936L10.464 3.936L8.64 21.248Q9.216 20.992 9.792 20.736L10.304 23.392Q9.344 23.84 8.32 24.224L7.616 31.04L5.12 31.04L5.728 25.184Q4.416 25.664 3.056 26.064Q1.696 26.464 0.288 26.848ZM5.536 8.288L7.552 8.288L8 3.936L5.984 3.936L5.536 8.288ZM4.832 15.104L6.816 15.104L7.264 10.752L5.28 10.752L4.832 15.104ZM4.544 17.568L4 22.944Q5.056 22.624 6.048 22.24L6.56 17.568L4.544 17.568ZM52.192 19.36L49.792 20.512Q49.6 20.032 49.408 19.536Q49.216 19.04 48.992 18.56Q47.616 18.752 46.256 18.896Q44.896 19.04 43.52 19.136L42.848 26.56Q42.432 31.424 38.688 31.424Q37.376 31.424 36.352 30.48Q35.328 29.536 34.752 27.68L37.472 26.656Q37.856 27.744 38.16 28.144Q38.464 28.544 38.88 28.544Q39.392 28.544 39.6 28.064Q39.808 27.584 39.904 26.464L40.544 19.296Q38.368 19.392 36.208 19.408Q34.048 19.424 31.872 19.392L31.808 16.768Q33.056 16.8 34.272 16.8Q37.472 15.2 39.904 13.536Q38.08 13.664 36.272 13.712Q34.464 13.76 33.088 13.696L33.056 11.04Q33.76 11.072 34.656 11.072Q36.384 9.952 37.792 8.704Q39.2 7.456 40.48 6.016Q38.688 6.432 36.832 6.752Q34.976 7.072 33.056 7.296L32.64 4.576Q37.248 3.968 41.344 2.992Q45.44 2.016 49.056 0.448002L50.112 2.88Q48.448 3.616 46.704 4.24Q44.96 4.864 43.136 5.344L44 6.048Q42.976 7.392 41.84 8.576Q40.704 9.76 39.264 10.944Q40.416 10.912 41.536 10.832Q42.656 10.752 43.616 10.688Q45.28 9.216 46.88 7.424L48.768 9.152Q46.592 11.52 44.512 13.312Q42.432 15.104 39.84 16.672Q41.824 16.608 43.84 16.448Q45.856 16.288 47.872 16.032Q47.52 15.328 47.168 14.656Q46.816 13.984 46.432 13.344L48.8 12.192Q49.76 13.76 50.576 15.568Q51.392 17.376 52.192 19.36ZM51.68 28.224L49.024 29.856Q48.256 27.712 47.2 25.728Q46.144 23.744 45.024 22.144L47.552 20.512Q48.704 22.176 49.824 24.256Q50.944 26.336 51.68 28.224ZM31.456 29.728L29.28 27.68Q31.008 26.08 32.272 24.4Q33.536 22.72 34.592 20.672L37.088 22.08Q35.104 26.304 31.456 29.728ZM61.056 31.072L58.784 29.12Q60.448 27.392 61.776 25.536Q63.104 23.68 64.096 21.472Q65.088 19.264 65.808 16.544Q66.528 13.824 66.976 10.368L67.456 6.656L61.568 6.656L61.888 3.648L70.624 3.648L71.008 0.064003L73.952 0.064003L73.568 3.648L82.208 3.648L81.888 6.656L70.368 6.656L69.888 10.4Q69.824 10.784 69.792 11.168L76.96 11.168Q78.272 11.168 78.912 11.92Q79.552 12.672 79.392 13.792L77.728 25.856Q77.536 27.296 76.944 28.48Q76.352 29.664 75.344 30.368Q74.336 31.072 72.832 31.072Q70.688 31.072 69.504 29.792Q68.32 28.512 68 26.336L70.528 25.792Q70.944 28.32 72.64 28.32Q74.496 28.32 74.912 25.344L76.448 13.984L69.344 13.984Q68.64 17.856 67.504 20.88Q66.368 23.904 64.768 26.384Q63.168 28.864 61.056 31.072ZM107.712 31.104Q105.728 31.104 104.592 29.536Q103.456 27.968 102.896 25.216Q102.336 22.464 102.048 18.944Q101.856 16.288 101.824 13.648Q101.792 11.008 101.888 8.448L90.08 8.448L90.4 5.472L102.048 5.472Q102.112 4.064 102.224 2.72Q102.336 1.376 102.464 0.064003L105.504 0.064003Q105.376 1.344 105.264 2.704Q105.152 4.064 105.056 5.472L111.968 5.472L111.68 8.448L104.896 8.448Q104.8 10.976 104.816 13.552Q104.832 16.128 105.024 18.624Q105.312 22.112 105.76 24.176Q106.208 26.24 106.72 27.136Q107.232 28.032 107.648 28Q108.416 27.968 108.864 22.24L111.552 22.688Q111.36 25.248 111.024 27.136Q110.688 29.024 109.936 30.048Q109.184 31.072 107.712 31.104ZM108.224 4.928Q107.904 3.936 107.488 2.96Q107.072 1.984 106.528 1.056L108.576 0.064003Q109.184 1.024 109.6 2.016Q110.016 3.008 110.336 4L108.224 4.928ZM88.672 29.376L88.096 26.368Q89.248 26.144 90.4 25.872Q91.552 25.6 92.704 25.28L93.696 16.032L89.92 16.032L90.208 13.184L100.832 13.184L100.544 16.032L96.576 16.032L95.712 24.384Q96.928 23.968 98.144 23.504Q99.36 23.04 100.576 22.496L101.184 25.472Q99.104 26.4 97.136 27.104Q95.168 27.808 93.12 28.352Q91.072 28.896 88.672 29.376Z">
</path>
</g>
<defs>
<linearGradient id="linear_fill_1_37_0" x1="-1.6000003814697266" y1="-2.55999755859375" x2="117.39999961853027" y2="36.44000244140625" gradientUnits="userSpaceOnUse">
<stop offset="0" stop-color="#87B3FF"  />
<stop offset="1" stop-color="#D39DEB"  />
</linearGradient>
</defs>
</svg>
