<svg xmlns="http://www.w3.org/2000/svg" xmlns:xlink="http://www.w3.org/1999/xlink" width="51.6373291015625" height="29.9520263671875" viewBox="0 0 51.6373291015625 29.9520263671875" fill="none">
<g >
<path     fill="url(#linear_fill_1_24_0)"  d="M12.256 21.888L9.66401 21.888L11.328 5.952L14.848 5.952Q15.744 4.288 16.384 2.624L11.264 2.624L11.552 3.8147e-06L23.52 3.8147e-06L23.232 2.624L19.296 2.624Q19.008 3.456 18.656 4.272Q18.304 5.088 17.856 5.952L20.16 5.952Q21.344 5.952 21.904 6.592Q22.464 7.232 22.368 8.352L20.864 21.888L18.272 21.888L19.712 8.608L13.664 8.608L12.256 21.888ZM0.864005 26.016L4.88758e-06 23.424Q0.832005 23.136 1.68 22.832Q2.52801 22.528 3.36 22.176L5.15201 4.704L2.208 4.704L2.496 2.144L10.592 2.144L10.336 4.704L7.96801 4.704L6.27201 20.864Q7.29601 20.384 8.224 19.84L9.21601 22.272Q7.2 23.392 5.12 24.336Q3.04 25.28 0.864005 26.016ZM7.52001 29.952L6.33601 27.136Q8.99201 26.048 10.672 24.848Q12.352 23.648 13.248 22.016Q14.144 20.384 14.4 17.952L15.264 10.048L17.792 10.048L16.96 17.568Q16.736 19.712 16.256 21.312Q17.76 22.656 19.248 24.272Q20.736 25.888 22.08 27.744L19.904 29.696Q18.816 28.032 17.632 26.592Q16.448 25.152 15.232 23.872Q14.176 25.824 12.32 27.264Q10.464 28.704 7.52001 29.952ZM51.616 3.008L48.864 28.864L32.256 28.864L35.264 0.128002L48.96 0.128002Q50.464 0.128002 51.104 0.976004Q51.744 1.824 51.616 3.008ZM37.312 8.832L48.064 8.832L48.672 3.008L37.92 3.008L37.312 8.832ZM36.416 17.376L47.136 17.376L47.776 11.584L37.024 11.584L36.416 17.376ZM35.52 25.984L46.208 25.984L46.848 20.128L36.128 20.128L35.52 25.984Z">
</path>
</g>
<defs>
<linearGradient id="linear_fill_1_24_0" x1="-1.1199951171875" y1="-4.1719970703125" x2="58.8800048828125" y2="34.8280029296875" gradientUnits="userSpaceOnUse">
<stop offset="0" stop-color="#87B3FF"  />
<stop offset="1" stop-color="#D39DEB"  />
</linearGradient>
</defs>
</svg>
