<svg xmlns="http://www.w3.org/2000/svg" xmlns:xlink="http://www.w3.org/1999/xlink" width="294" height="100" viewBox="0 0 294 100" fill="none">
<path d="M45.4167 8.74995C26.25 10.8333 10.8334 26.25 8.75004 45C6.66671 64.5832 17.9167 82.0832 35 88.7499C36.25 89.1665 37.5 88.3332 37.5 86.6665L37.5 79.9999C37.5 79.9999 35.8334 80.4165 33.75 80.4165C27.9167 80.4165 25.4167 75.4165 25 72.4999C24.5834 70.8332 23.75 69.5832 22.5 68.3332C21.25 67.9165 20.8334 67.9165 20.8334 67.4999C20.8334 66.6665 22.0834 66.6665 22.5 66.6665C25 66.6665 27.0834 69.5832 27.9167 70.8332C30 74.1665 32.5 74.9999 33.75 74.9999C35.4167 74.9999 36.6667 74.5832 37.5 74.1665C37.9167 71.2499 39.1667 68.3332 41.6667 66.6665C32.0834 64.5832 25 59.1665 25 50C25 45.4166 27.0834 40.8333 30 37.5C29.5834 36.6666 29.1667 34.5833 29.1667 31.6666C29.1667 30 29.1667 27.5 30.4167 25C30.4167 25 36.25 25 42.0834 30.4166C44.1667 29.5833 47.0834 29.1666 50 29.1666C52.9168 29.1666 55.8334 29.5833 58.3334 30.4166C63.7501 25 70.0001 25 70.0001 25C70.8335 27.5 70.8335 30 70.8335 31.6666C70.8335 35 70.4168 36.6666 70.0001 37.5C72.9168 40.8333 75.0001 45 75.0001 50C75.0001 59.1665 67.9168 64.5832 58.3334 66.6665C60.8334 68.7499 62.5001 72.4999 62.5001 76.2499L62.5001 87.0832C62.5001 88.3332 63.7501 89.5832 65.4168 89.1665C80.8335 82.9165 91.6668 67.9165 91.6668 50.4165C91.6668 25.4166 70.4168 5.83329 45.4167 8.74995Z"   fill="#000000" >
</path>
<g >
<path     fill="#000000"  d="M122.61 51.076Q121.06 61.12 122.114 65.925Q123.168 70.73 127.508 70.73Q129.492 70.73 131.29 69.273Q133.088 67.816 134.359 65.367Q135.63 62.918 136.25 59.88L136.87 55.106L129.74 55.106L130.484 49.154L143.69 49.154L139.97 76L134.824 76L135.754 69.676Q133.832 72.9 131.135 74.76Q128.438 76.62 125.276 76.62Q119.2 76.62 116.689 70.389Q114.178 64.158 115.914 51.076Q117.712 37.746 122.052 31.515Q126.392 25.284 133.522 25.284Q136.808 25.284 138.947 26.772Q141.086 28.26 142.326 30.616Q143.566 32.972 144.062 35.7L137.676 37.064Q137.242 34.46 136.033 32.972Q134.824 31.484 132.84 31.484Q129.864 31.484 127.973 33.561Q126.082 35.638 124.873 39.947Q123.664 44.256 122.61 51.076ZM160.416 34.088Q158.68 34.088 157.812 32.91Q156.944 31.732 157.192 29.872Q157.502 28.074 158.556 26.865Q159.61 25.656 161.532 25.656Q163.33 25.656 164.198 26.865Q165.066 28.074 164.756 29.872Q164.508 31.732 163.423 32.91Q162.338 34.088 160.416 34.088ZM157.44 76L151.426 76L156.758 38.18L162.772 38.18L157.44 76ZM171.872 65.026L175.22 43.636L171.19 43.636L171.996 38.18L176.088 38.18L177.7 27.764L183.404 27.764L181.854 38.18L188.86 38.18L188.054 43.636L180.986 43.636L177.886 64.344Q177.39 67.754 177.855 69.397Q178.32 71.04 180.056 71.04Q181.544 71.04 183.218 69.862L185.14 74.946Q183.218 75.814 181.141 76.31Q179.064 76.806 177.142 76.558Q175.22 76.31 173.825 75.101Q172.43 73.892 171.841 71.443Q171.252 68.994 171.872 65.026ZM200.068 76L194.054 76L201.432 23.92L207.446 23.92L204.966 41.404Q206.516 39.544 208.407 38.769Q210.298 37.994 211.91 37.994Q214.142 37.994 215.909 39.048Q217.676 40.102 218.544 42.52Q219.412 44.938 218.792 49.092L215.01 76.062L208.872 76.062L212.53 50.084Q213.46 43.512 209.306 43.512Q205.152 43.512 203.788 49.836L200.068 76ZM246.74 38.18L252.754 38.18L247.36 76L241.718 76L242.028 72.342Q240.478 74.636 238.587 75.628Q236.696 76.62 234.898 76.62Q232.666 76.62 230.899 75.535Q229.132 74.45 228.326 72.001Q227.52 69.552 228.078 65.46L231.922 38.18L237.998 38.18L234.216 64.468Q233.286 71.04 237.378 71.04Q239.362 71.04 240.85 69.18Q242.338 67.32 243.02 64.406L246.74 38.18ZM264.582 76L258.94 76L266.318 23.92L272.332 23.92L269.914 40.846Q272.58 37.56 276.424 37.56Q281.136 37.56 283.244 42.365Q285.352 47.17 284.298 56.532Q283.616 62.36 281.911 66.917Q280.206 71.474 277.509 74.047Q274.812 76.62 271.216 76.62Q267.062 76.62 265.264 72.838L264.582 76ZM274.688 43.14Q272.58 43.14 271.061 44.752Q269.542 46.364 268.798 49.03L266.566 64.344Q266.442 67.258 267.589 69.149Q268.736 71.04 270.782 71.04Q272.89 71.04 274.285 69.118Q275.68 67.196 276.61 64.034Q277.54 60.872 278.036 57.152Q278.656 52.998 278.563 49.836Q278.47 46.674 277.571 44.907Q276.672 43.14 274.688 43.14Z">
</path>
</g>
</svg>
