<svg xmlns="http://www.w3.org/2000/svg" xmlns:xlink="http://www.w3.org/1999/xlink" width="190.5" height="74.2991943359375" viewBox="0 0 190.5 74.2991943359375" fill="none">
<g filter="url(#filter_1_41)">
<rect  x="1.25" y="1.25" width="188" height="71.79923999999997" rx="6"    fill="#A8A7C4" fill-opacity="0.08">
</rect>
<path   fill="rgba(110, 124, 255, 1)"  d="M7.25 0L183.25 0C187.254 0 190.5 3.24594 190.5 7.25L190.5 67.0492C190.5 71.0533 187.254 74.2992 183.25 74.2992L7.25 74.2992C3.24594 74.2992 0 71.0533 0 67.0492L0 7.25C0 3.24594 3.24594 0 7.25 0ZM7.25 2.5C4.62665 2.5 2.5 4.62665 2.5 7.25L2.5 67.0492C2.5 69.6726 4.62665 71.7992 7.25 71.7992L183.25 71.7992C185.873 71.7992 188 69.6726 188 67.0492L188 7.25C188 4.62665 185.873 2.5 183.25 2.5L7.25 2.5Z">
</path>
<g >
<path     fill="#FFFFFF"  d="M27.83 36.678Q26.93 42.51 27.542 45.3Q28.154 48.09 30.674 48.09Q31.826 48.09 32.87 47.244Q33.914 46.398 34.652 44.976Q35.39 43.554 35.75 41.79L36.11 39.018L31.97 39.018L32.402 35.562L40.07 35.562L37.91 51.15L34.922 51.15L35.462 47.478Q34.346 49.35 32.78 50.43Q31.214 51.51 29.378 51.51Q25.85 51.51 24.392 47.892Q22.934 44.274 23.942 36.678Q24.986 28.938 27.506 25.32Q30.026 21.702 34.166 21.702Q36.074 21.702 37.316 22.566Q38.558 23.43 39.278 24.798Q39.998 26.166 40.286 27.75L36.578 28.542Q36.326 27.03 35.624 26.166Q34.922 25.302 33.77 25.302Q32.042 25.302 30.944 26.508Q29.846 27.714 29.144 30.216Q28.442 32.718 27.83 36.678ZM56.298 26.814Q55.29 26.814 54.786 26.13Q54.282 25.446 54.426 24.366Q54.606 23.322 55.218 22.62Q55.83 21.918 56.946 21.918Q57.99 21.918 58.494 22.62Q58.998 23.322 58.818 24.366Q58.674 25.446 58.044 26.13Q57.414 26.814 56.298 26.814ZM54.57 51.15L51.078 51.15L54.174 29.19L57.666 29.19L54.57 51.15ZM69.466 44.778L71.41 32.358L69.07 32.358L69.538 29.19L71.914 29.19L72.85 23.142L76.162 23.142L75.262 29.19L79.33 29.19L78.862 32.358L74.758 32.358L72.958 44.382Q72.67 46.362 72.94 47.316Q73.21 48.27 74.218 48.27Q75.082 48.27 76.054 47.586L77.17 50.538Q76.054 51.042 74.848 51.33Q73.642 51.618 72.526 51.474Q71.41 51.33 70.6 50.628Q69.79 49.926 69.448 48.504Q69.106 47.082 69.466 44.778ZM92.354 51.15L88.862 51.15L93.146 20.91L96.638 20.91L95.198 31.062Q96.098 29.982 97.196 29.532Q98.294 29.082 99.23 29.082Q100.526 29.082 101.552 29.694Q102.578 30.306 103.082 31.71Q103.586 33.114 103.226 35.526L101.03 51.186L97.466 51.186L99.59 36.102Q100.13 32.286 97.718 32.286Q95.306 32.286 94.514 35.958L92.354 51.15ZM125.97 29.19L129.462 29.19L126.33 51.15L123.054 51.15L123.234 49.026Q122.334 50.358 121.236 50.934Q120.138 51.51 119.094 51.51Q117.798 51.51 116.772 50.88Q115.746 50.25 115.278 48.828Q114.81 47.406 115.134 45.03L117.366 29.19L120.894 29.19L118.698 44.454Q118.158 48.27 120.534 48.27Q121.686 48.27 122.55 47.19Q123.414 46.11 123.81 44.418L125.97 29.19ZM142.846 51.15L139.57 51.15L143.854 20.91L147.346 20.91L145.942 30.738Q147.49 28.83 149.722 28.83Q152.458 28.83 153.682 31.62Q154.906 34.41 154.294 39.846Q153.898 43.23 152.908 45.876Q151.918 48.522 150.352 50.016Q148.786 51.51 146.698 51.51Q144.286 51.51 143.242 49.314L142.846 51.15ZM148.714 32.07Q147.49 32.07 146.608 33.006Q145.726 33.942 145.294 35.49L143.998 44.382Q143.926 46.074 144.592 47.172Q145.258 48.27 146.446 48.27Q147.67 48.27 148.48 47.154Q149.29 46.038 149.83 44.202Q150.37 42.366 150.658 40.206Q151.018 37.794 150.964 35.958Q150.91 34.122 150.388 33.096Q149.866 32.07 148.714 32.07Z">
</path>
</g>
</g>
<defs>
<filter id="filter_1_41" x="1.25" y="1.25" width="188" height="71.7991943359375" filterUnits="userSpaceOnUse" color-interpolation-filters="sRGB">
<feFlood flood-opacity="0" result="feFloodId_1_41"/>
<feBlend mode="normal" in="SourceGraphic" in2="feFloodId_1_41" result="shape_1_41"/>
<feColorMatrix in="SourceAlpha" type="matrix" values="0 0 0 0 0 0 0 0 0 0 0 0 0 0 0 0 0 0 127 0" result="hardAlpha_1_41"/>
<feOffset dx="3" dy="3"/>
<feGaussianBlur stdDeviation="2"/>
<feComposite in2="hardAlpha_1_41" operator="arithmetic" k2="-1" k3="1"/>
<feColorMatrix type="matrix" values="0 0 0 0 0 0 0 0 0 0 0 0 0 0 0 0 0 0 0.25 0"/>
<feBlend mode="normal" in2="shape_1_41" result="innerShadow_0_1_41" />
</filter>
</defs>
</svg>
