<svg xmlns="http://www.w3.org/2000/svg" xmlns:xlink="http://www.w3.org/1999/xlink" width="1058.071533203125" height="263" viewBox="0 0 1058.071533203125 263" fill="none">
<g >
<path     fill="#000000"  d="M401.872 61.3L398.072 97.7L310.872 97.7Q309.872 110.7 317.372 115.1Q324.872 119.5 342.472 119.5Q359.672 119.5 374.472 116.6Q389.272 113.7 401.672 107.1L409.272 122.3Q401.872 126.5 392.372 130Q382.872 133.5 370.172 135.5Q357.472 137.5 339.672 137.5Q324.072 137.5 312.972 134.1Q301.872 130.7 296.572 122.5Q291.272 114.3 292.672 100.3L298.672 45.3L385.872 45.3Q394.072 45.3 398.372 49.4Q402.672 53.5 401.872 61.3ZM312.672 80.9L381.872 80.9L383.872 62.1L314.672 62.1L312.672 80.9ZM272.872 233.7L265.272 218.5Q283.072 211.1 292.772 202.4Q302.472 193.7 306.872 180.5L270.872 180.5L272.672 163.1L310.872 163.1Q311.272 161.1 311.472 158.9L313.272 144.1L331.272 144.1L329.472 159.5Q329.272 161.3 329.072 163.1L359.272 163.1L361.272 144.1L378.872 144.1L376.872 163.1L405.872 163.1L404.072 180.5L375.072 180.5L369.672 232.9L351.872 232.9L357.472 180.5L325.472 180.5Q320.672 197.5 308.872 210.9Q297.072 224.3 272.872 233.7ZM471.872 216.3Q485.272 208.1 496.072 198.6Q506.872 189.1 515.472 178.5Q514.872 173.7 514.272 168.7Q513.672 163.7 513.272 158.3Q511.872 141.7 511.572 124.8Q511.272 107.9 511.672 91.5L438.472 91.5L440.272 74.7L512.472 74.7Q512.872 65.3 513.572 56.4Q514.272 47.5 515.271 38.9L532.672 38.9Q531.872 47.3 531.172 56.3Q530.472 65.3 529.872 74.7L571.872 74.7L570.072 91.5L529.072 91.5Q528.672 107.7 528.972 124.2Q529.272 140.7 530.472 156.3L530.472 156.5Q536.072 146.9 540.372 136.5Q544.672 126.1 547.872 115.1L563.472 119.9Q558.072 137.1 550.872 152.9Q543.672 168.7 533.472 182.9Q536.272 200.5 539.872 207.7Q543.472 214.9 546.272 214.9Q549.272 214.9 550.972 205.7Q552.672 196.5 554.072 178.9L569.271 181.7Q568.072 197.7 566.072 209.6Q564.072 221.5 559.772 227.9Q555.472 234.3 547.272 234.3Q536.872 234.3 530.172 225.2Q523.472 216.1 519.472 200.3Q511.672 208.9 502.072 217Q492.472 225.1 481.072 232.5L471.872 216.3ZM548.072 71.1Q546.672 64.3 544.772 57.4Q542.872 50.5 540.072 43.9L553.472 38.9Q556.472 45.9 558.472 52.9Q560.472 59.9 561.672 66.7L548.072 71.1ZM501.472 120.7L496.072 168.7L442.672 168.7L449.672 105.9L487.472 105.9Q495.072 105.9 498.672 110Q502.272 114.1 501.472 120.7ZM460.872 152.7L481.272 152.7L484.872 121.7L464.272 121.7L460.872 152.7ZM431.872 211.5L428.272 194.5Q444.072 191.9 460.872 187.6Q477.672 183.3 493.872 177.5L498.272 193.7Q482.472 199.7 466.072 204Q449.672 208.3 431.872 211.5ZM716.872 208.9L714.872 226.9L590.872 226.9L592.872 208.9L643.272 208.9L658.072 67.9L613.272 67.9L615.272 49.9L729.072 49.9L727.072 67.9L678.072 67.9L663.272 208.9L716.872 208.9ZM780.672 232.5L762.872 232.5L774.672 122.3Q767.472 133.3 759.472 143.7L745.472 130.7Q762.672 110.3 775.372 86.2Q788.072 62.1 797.672 38.5L813.672 45.7Q809.872 55.7 805.372 65.8Q800.872 75.9 795.872 85.7L780.672 232.5ZM817.072 232.5L832.472 85.9L827.872 85.9Q824.072 94.3 819.672 102.5Q815.272 110.7 810.072 118.3L795.472 108.5Q806.272 92.5 813.772 75.3Q821.272 58.1 826.872 38.7L843.472 43.3Q841.672 49.3 839.572 55.6Q837.472 61.9 835.072 68.3L894.272 68.3L892.272 85.9L850.072 85.9L846.672 119.1L883.272 119.1L881.272 136.3L844.872 136.3L841.272 169.3L880.872 169.3L878.872 186.5L839.472 186.5L834.672 232.5L817.072 232.5ZM1031.07 169.3L1029.27 186.9L987.072 186.9L984.672 210.1L1039.27 210.1L1037.47 227.7L908.872 227.7L910.872 210.1L967.072 210.1L969.472 186.9L927.272 186.9L929.072 169.3L971.272 169.3L973.472 149.7Q962.872 150.1 952.372 150.5Q941.872 150.9 931.472 151.3L930.072 135.5Q933.272 135.5 936.272 135.5Q951.072 122.5 961.672 106.9L937.272 106.9L938.672 93.1L920.872 93.1L924.672 56.9L980.872 56.9L982.872 38.9L1001.27 38.9L999.272 56.9L1038.07 56.9Q1047.07 56.9 1051.07 61.6Q1055.07 66.3 1054.27 73.7L1052.27 93.1L1036.07 93.1L1034.67 106.9L981.272 106.9Q976.472 114.1 970.672 121.2Q964.872 128.3 958.272 134.9Q970.472 134.5 982.472 133.9Q994.472 133.3 1006.07 132.5Q1001.67 126.9 997.272 121.9L1010.47 111.9Q1018.47 121.1 1025.77 131.2Q1033.07 141.3 1037.87 150.5L1024.27 159.9Q1021.07 154.1 1016.27 146.9Q1010.07 147.3 1003.77 147.8Q997.472 148.3 991.072 148.7L988.872 169.3L1031.07 169.3ZM939.672 89.5L1034.27 89.5L1035.87 74.3L941.272 74.3L939.672 89.5Z">
</path>
</g>
<path d="M220.652 0.5L1.07153 262.5L30.0715 262.5L248.072 0.5L220.652 0.5Z" stroke="url(#linear_border_20_15)" stroke-width="1"      fill="#000000" fill-opacity="100">
</path>
<path d="M208.334 224.508L67.0699 224.508L86.3195 201.592L186.793 201.592L186.793 108.552L208.334 108.552L208.334 224.508Z" stroke="url(#linear_border_20_20)" stroke-width="0.9166443305141041"      fill="#000000" fill-opacity="100">
</path>
<path d="M210.525 95.2573C210.525 102.851 204.369 109.007 196.775 109.007C189.182 109.007 183.026 102.851 183.026 95.2573C183.026 87.6635 189.182 81.5073 196.775 81.5073C204.369 81.5073 210.525 87.6635 210.525 95.2573Z" stroke="rgba(0, 0, 0, 1)" stroke-width="11.916376296683355"   >
</path>
<path d="M33.2556 48.5039L174.072 48.5039L154.883 71.42L54.7284 71.42L54.7284 164.459L33.2556 164.459L33.2556 48.5039Z" stroke="url(#linear_border_20_25)" stroke-width="1"      fill="#000000" fill-opacity="100">
</path>
<path d="M31.0716 177.754C31.0716 170.16 37.208 164.004 44.7777 164.004C52.3474 164.004 58.4839 170.16 58.4839 177.754C58.4839 185.348 52.3474 191.504 44.7777 191.504C37.208 191.504 31.0716 185.348 31.0716 177.754Z" stroke="rgba(0, 0, 0, 1)" stroke-width="13"   >
</path>
<defs>
<linearGradient id="linear_border_20_15" x1="1.071533203125" y1="131.5" x2="248.071533203125" y2="131.5" gradientUnits="userSpaceOnUse">
<stop offset="0" stop-color="#BAC8E8"  />
<stop offset="0.4723" stop-color="#C9B7ED" stop-opacity="0.57" />
<stop offset="1" stop-color="#000000"  />
</linearGradient>
<linearGradient id="linear_border_20_20" x1="208.334228515625" y1="166.52978515625" x2="67.06982421875" y2="166.52978515625" gradientUnits="userSpaceOnUse">
<stop offset="0" stop-color="#BAC8E8"  />
<stop offset="0.4723" stop-color="#C9B7ED" stop-opacity="0.57" />
<stop offset="1" stop-color="#000000"  />
</linearGradient>
<linearGradient id="linear_border_20_25" x1="33.255615234375" y1="106.4814453125" x2="174.071533203125" y2="106.4814453125" gradientUnits="userSpaceOnUse">
<stop offset="0" stop-color="#BAC8E8"  />
<stop offset="0.4723" stop-color="#C9B7ED" stop-opacity="0.57" />
<stop offset="1" stop-color="#000000"  />
</linearGradient>
</defs>
</svg>
