<svg xmlns="http://www.w3.org/2000/svg" xmlns:xlink="http://www.w3.org/1999/xlink" width="73.5" height="78" viewBox="0 0 73.5 78" fill="none">
	<path d="M66.56 0L0 78L7.5 78L73.5 0L66.56 0Z" fill="#ffffff" fill-opacity="100">
	</path>
	<path d="M63.2 67.6299L19.4999 67.6299L23.1699 63.4199L58.7 63.4199L58.7 33.4999L63.2 31.9999L63.2 67.6299Z" stroke="rgba(255,255,255,1)" stroke-width="0.8" fill="#ffffff" fill-opacity="100">
	</path>
	<path d="M56.4951 27.5217C56.4951 25.0249 58.5183 23.0018 61.0036 23.0018C63.489 23.0018 65.5002 25.0249 65.5002 27.5217C65.5002 30.0184 63.489 32.0415 61.0036 32.0415C58.5183 32.0415 56.4951 30.0184 56.4951 27.5217Z" stroke="rgba(255,255,255,1)" stroke-width="4">
	</path>
	<path d="M9.00049 12.0005L52.7005 12.0005L49.0305 16.2105L13.5005 16.2105L13.5005 46.1305L9.00049 47.6305L9.00049 12.0005Z" stroke="rgba(255,255,255,1)" stroke-width="0.8" fill="#ffffff" fill-opacity="100">
	</path>
	<path d="M16.5054 52.5198C16.5054 55.0166 14.4822 57.0397 11.9968 57.0397C9.5115 57.0397 7.50024 55.0166 7.50024 52.5198C7.50024 50.0231 9.5115 48 11.9968 48C14.4822 48 16.5054 50.0231 16.5054 52.5198Z" stroke="rgba(255,255,255,1)" stroke-width="4">
	</path>
</svg>
