<svg xmlns="http://www.w3.org/2000/svg" xmlns:xlink="http://www.w3.org/1999/xlink" width="194" height="77.7991943359375" viewBox="0 0 194 77.7991943359375" fill="none">
<g filter="url(#filter_1_43)">
<rect  x="3" y="3" width="188" height="71.79923999999997" rx="6"    fill="url(#linear_fill_1_43_0)" >
</rect>
<path fill-rule="evenodd"  fill="url(#linear_border_1_43_0)"  d="M185 0.5L9 0.5C4.30558 0.5 0.5 4.30558 0.5 9L0.5 68.7992C0.5 73.4937 4.30558 77.2992 9 77.2992L185 77.2992C189.694 77.2992 193.5 73.4937 193.5 68.7992L193.5 9C193.5 4.30558 189.694 0.5 185 0.5ZM185 3L9 3C5.68629 3 3 5.68629 3 9L3 68.7992C3 72.1129 5.68629 74.7992 9 74.7992L185 74.7992C188.314 74.7992 191 72.1129 191 68.7992L191 9C191 5.68629 188.314 3 185 3Z">
</path>
</g>
<g >
<path     fill="#FFFFFF"  d="M46.584 46.79L43.506 46.79L45.482 27.866L49.662 27.866Q50.726 25.89 51.486 23.914L45.406 23.914L45.748 20.798L59.96 20.798L59.618 23.914L54.944 23.914Q54.602 24.902 54.184 25.871Q53.766 26.84 53.234 27.866L55.97 27.866Q57.376 27.866 58.041 28.626Q58.706 29.386 58.592 30.716L56.806 46.79L53.728 46.79L55.438 31.02L48.256 31.02L46.584 46.79ZM33.056 51.692L32.03 48.614Q33.018 48.272 34.025 47.911Q35.032 47.55 36.02 47.132L38.148 26.384L34.652 26.384L34.994 23.344L44.608 23.344L44.304 26.384L41.492 26.384L39.478 45.574Q40.694 45.004 41.796 44.358L42.974 47.246Q40.58 48.576 38.11 49.697Q35.64 50.818 33.056 51.692ZM40.96 56.366L39.554 53.022Q42.708 51.73 44.703 50.305Q46.698 48.88 47.762 46.942Q48.826 45.004 49.13 42.116L50.156 32.73L53.158 32.73L52.17 41.66Q51.904 44.206 51.334 46.106Q53.12 47.702 54.887 49.621Q56.654 51.54 58.25 53.744L55.666 56.062Q54.374 54.086 52.968 52.376Q51.562 50.666 50.118 49.146Q48.864 51.464 46.66 53.174Q44.456 54.884 40.96 56.366ZM92.574 24.37L89.306 55.074L69.584 55.074L73.156 20.95L89.42 20.95Q91.206 20.95 91.966 21.957Q92.726 22.964 92.574 24.37ZM75.588 31.286L88.356 31.286L89.078 24.37L76.31 24.37L75.588 31.286ZM74.524 41.432L87.254 41.432L88.014 34.554L75.246 34.554L74.524 41.432ZM73.46 51.654L86.152 51.654L86.912 44.7L74.182 44.7L73.46 51.654ZM117.094 52.528Q114.662 53.782 112.154 54.637Q109.646 55.492 107.062 56.1L106.378 52.984Q107.632 52.68 108.81 52.338L109.874 43.598L107.328 43.598Q106.606 47.322 105.618 50.533Q104.63 53.744 103.224 56.822L100.108 55.264Q101.552 52.186 102.502 49.146Q103.452 46.106 104.098 42.629Q104.744 39.152 105.2 34.744L106.682 20.532L125.112 20.532Q126.86 20.532 127.677 21.501Q128.494 22.47 128.304 23.952L127.62 30.336L109.038 30.336L108.62 34.364L112.572 34.364L112.914 31.248L116.182 31.248L115.84 34.364L119.64 34.364L119.982 31.248L123.06 31.248L122.718 34.364L126.518 34.364L126.214 37.176L122.452 37.176L122.072 40.862L127.316 40.862L127.012 43.598L119.374 43.598Q119.412 44.624 119.621 45.707Q119.83 46.79 120.362 47.816Q121.654 47.056 122.813 46.182Q123.972 45.308 124.922 44.396L126.708 46.448Q124.656 48.5 122.034 50.172Q122.908 51.046 124.162 51.749Q125.416 52.452 127.164 52.984L126.328 56.062Q123.174 55.302 121.217 53.915Q119.26 52.528 118.196 50.799Q117.132 49.07 116.714 47.208Q116.296 45.346 116.22 43.598L113.218 43.598L112.344 51.122Q114.206 50.438 115.916 49.602L117.094 52.528ZM109.418 26.992L124.504 26.992L124.808 23.876L109.76 23.876L109.418 26.992ZM107.784 40.862L111.926 40.862L112.306 37.176L108.316 37.176Q108.05 39.114 107.784 40.862ZM115.194 40.862L118.994 40.862L119.374 37.176L115.574 37.176L115.194 40.862ZM161.45 20.57L161.07 24.142L141.006 24.142L141.386 20.57L161.45 20.57ZM144.388 50.096Q144.578 51.388 144.901 52.129Q145.224 52.87 145.794 52.87Q146.136 52.87 146.402 52.661Q146.668 52.452 146.858 51.749Q147.048 51.046 147.2 49.564L148.834 34.25L138.422 34.25L138.802 30.678L162.324 30.678L161.944 34.25L152.292 34.25L150.62 49.982Q150.316 53.06 149.233 54.599Q148.15 56.138 146.098 56.138Q144.274 56.138 143.039 54.789Q141.804 53.44 141.5 50.59L144.388 50.096ZM139.22 52.376L136.18 50.742Q138.308 47.588 139.581 44.377Q140.854 41.166 141.614 38.088L144.882 38.81Q144.046 42.04 142.754 45.536Q141.462 49.032 139.22 52.376ZM157.726 38.506Q158.144 41.584 158.866 45.118Q159.588 48.652 160.728 51.958L157.46 53.174Q156.32 49.45 155.579 45.802Q154.838 42.154 154.496 39.076L157.726 38.506Z">
</path>
</g>
<defs>
<linearGradient id="linear_fill_1_43_0" x1="3" y1="38.899619999999985" x2="234.59908000000001" y2="111.00759673199995" gradientUnits="userSpaceOnUse">
<stop offset="0" stop-color="#0E2175"  />
<stop offset="1" stop-color="#491B7D"  />
</linearGradient>
<linearGradient id="linear_border_1_43_0" x1="-19.78184" y1="3" x2="205.10376000000002" y2="85.00693795079995" gradientUnits="userSpaceOnUse">
<stop offset="0" stop-color="#4682C7"  />
<stop offset="1" stop-color="#823BD4"  />
</linearGradient>
<filter id="filter_1_43" x="0" y="0" width="194" height="77.7991943359375" filterUnits="userSpaceOnUse" color-interpolation-filters="sRGB">
<feFlood flood-opacity="0" result="feFloodId_1_43"/>
<feBlend mode="normal" in="SourceGraphic" in2="feFloodId_1_43" result="shape_1_43"/>
<feColorMatrix in="SourceAlpha" type="matrix" values="0 0 0 0 0 0 0 0 0 0 0 0 0 0 0 0 0 0 127 0" result="hardAlpha_1_43"/>
<feOffset dx="4" dy="4"/>
<feGaussianBlur stdDeviation="2"/>
<feComposite in2="hardAlpha_1_43" operator="arithmetic" k2="-1" k3="1"/>
<feColorMatrix type="matrix" values="0 0 0 0 0.18823529411764706 0 0 0 0 0.18823529411764706 0 0 0 0 0.18823529411764706 0 0 0 0.3 0"/>
<feBlend mode="normal" in2="shape_1_43" result="innerShadow_0_1_43" />
<feGaussianBlur result="gaussian_blur_1_43" stdDeviation="0.25"/>
</filter>
</defs>
</svg>
